{
    "asset" : {
        "generator" : "Khronos glTF Blender I/O v3.2.43",
        "version" : "2.0"
    },
    "extensionsUsed" : [
        "KHR_materials_clearcoat"
    ],
    "scene" : 0,
    "scenes" : [
        {
            "name" : "Scene",
            "nodes" : [
                0,
                1,
                2,
                3,
                4,
                5,
                6,
                7,
                8
            ]
        }
    ],
    "nodes" : [
        {
            "mesh" : 0,
            "name" : "\u7acb\u65b9\u4f53",
            "rotation" : [
                0,
                0.0018365744035691023,
                0,
                1
            ],
            "scale" : [
                140.00001525878906,
                2.2422337532043457,
                100.00000762939453
            ],
            "translation" : [
                -1.8886680603027344,
                18.88499641418457,
                58.81821823120117
            ]
        },
        {
            "mesh" : 1,
            "name" : "\u7acb\u65b9\u4f53.001",
            "rotation" : [
                0.5903655290603638,
                0.00148236402310431,
                -0.0010842520277947187,
                0.8071339726448059
            ],
            "scale" : [
                140.00001525878906,
                1.500643253326416,
                95.3013687133789
            ],
            "translation" : [
                -2.367938995361328,
                108.81562805175781,
                -71.6594009399414
            ]
        },
        {
            "mesh" : 2,
            "name" : "\u7acb\u65b9\u4f53.002",
            "rotation" : [
                0,
                0.001836574636399746,
                0,
                1
            ],
            "scale" : [
                151.42893981933594,
                151.42892456054688,
                151.42893981933594
            ],
            "translation" : [
                -118.70081329345703,
                -11.08096694946289,
                -22.307649612426758
            ]
        },
        {
            "mesh" : 3,
            "name" : "\u7acb\u65b9\u4f53.003",
            "rotation" : [
                0,
                0.001836574636399746,
                0,
                1
            ],
            "scale" : [
                151.42893981933594,
                151.42892456054688,
                151.42893981933594
            ],
            "translation" : [
                -124.16227722167969,
                -11.08096694946289,
                -3.5166115760803223
            ]
        },
        {
            "mesh" : 4,
            "name" : "\u7acb\u65b9\u4f53.006",
            "rotation" : [
                0,
                0.001836574636399746,
                0,
                1
            ],
            "scale" : [
                151.42893981933594,
                151.42892456054688,
                151.42893981933594
            ],
            "translation" : [
                -120.78816223144531,
                -11.08096694946289,
                33.40287399291992
            ]
        },
        {
            "mesh" : 5,
            "name" : "\u7acb\u65b9\u4f53.007",
            "rotation" : [
                0,
                0.001836574636399746,
                0,
                1
            ],
            "scale" : [
                151.42893981933594,
                151.42892456054688,
                151.42893981933594
            ],
            "translation" : [
                -120.72007751464844,
                -11.08096694946289,
                51.938961029052734
            ]
        },
        {
            "mesh" : 6,
            "name" : "\u7acb\u65b9\u4f53.008",
            "rotation" : [
                0,
                0.001836574636399746,
                0,
                1
            ],
            "scale" : [
                151.42893981933594,
                151.42892456054688,
                151.42893981933594
            ],
            "translation" : [
                -118.36003112792969,
                -11.08096694946289,
                70.46662139892578
            ]
        },
        {
            "mesh" : 7,
            "name" : "\u7acb\u65b9\u4f53.004",
            "rotation" : [
                0,
                0.001836574636399746,
                0,
                1
            ],
            "scale" : [
                151.42893981933594,
                151.42892456054688,
                151.42893981933594
            ],
            "translation" : [
                -118.56414794921875,
                -11.08096694946289,
                14.897820472717285
            ]
        },
        {
            "mesh" : 8,
            "name" : "\u5e73\u9762",
            "rotation" : [
                0,
                0.001836574636399746,
                0,
                1
            ],
            "scale" : [
                0.5112189054489136,
                1.7932775020599365,
                0.5112189054489136
            ],
            "translation" : [
                -0.1009976863861084,
                0.8474687337875366,
                0.7875164747238159
            ]
        }
    ],
    "materials" : [
        {
            "doubleSided" : true,
            "name" : "Material",
            "pbrMetallicRoughness" : {
                "baseColorFactor" : [
                    0.6738521456718445,
                    0.6738521456718445,
                    0.6738521456718445,
                    1
                ],
                "metallicFactor" : 0.20000000298023224,
                "roughnessFactor" : 0.4000000059604645
            }
        },
        {
            "doubleSided" : true,
            "emissiveFactor" : [
                1,
                1,
                1
            ],
            "extensions" : {
                "KHR_materials_clearcoat" : {
                    "clearcoatFactor" : 2,
                    "clearcoatRoughnessFactor" : 0.029999999329447746
                }
            },
            "name" : "\u30de\u30c6\u30ea\u30a2\u30eb.003",
            "pbrMetallicRoughness" : {
                "metallicFactor" : 20,
                "roughnessFactor" : 0.5
            }
        },
        {
            "doubleSided" : true,
            "name" : "\u30de\u30c6\u30ea\u30a2\u30eb",
            "pbrMetallicRoughness" : {
                "baseColorFactor" : [
                    0.049550436437129974,
                    0.049550436437129974,
                    0.049550436437129974,
                    1
                ],
                "metallicFactor" : 0,
                "roughnessFactor" : 0.5
            }
        },
        {
            "doubleSided" : true,
            "name" : "Material.001",
            "pbrMetallicRoughness" : {
                "baseColorFactor" : [
                    0.5488545298576355,
                    0.5488545298576355,
                    0.5488545298576355,
                    1
                ],
                "metallicFactor" : 0.20000000298023224,
                "roughnessFactor" : 0.4000000059604645
            }
        }
    ],
    "meshes" : [
        {
            "name" : "\u7acb\u65b9\u4f53",
            "primitives" : [
                {
                    "attributes" : {
                        "POSITION" : 0,
                        "NORMAL" : 1,
                        "TEXCOORD_0" : 2
                    },
                    "indices" : 3,
                    "material" : 0
                }
            ]
        },
        {
            "name" : "\u7acb\u65b9\u4f53.001",
            "primitives" : [
                {
                    "attributes" : {
                        "POSITION" : 4,
                        "NORMAL" : 5,
                        "TEXCOORD_0" : 6
                    },
                    "indices" : 7,
                    "material" : 0
                },
                {
                    "attributes" : {
                        "POSITION" : 8,
                        "NORMAL" : 9,
                        "TEXCOORD_0" : 10
                    },
                    "indices" : 11,
                    "material" : 1
                }
            ]
        },
        {
            "name" : "\u7acb\u65b9\u4f53.002",
            "primitives" : [
                {
                    "attributes" : {
                        "POSITION" : 12,
                        "NORMAL" : 13,
                        "TEXCOORD_0" : 14
                    },
                    "indices" : 15,
                    "material" : 2
                }
            ]
        },
        {
            "name" : "\u7acb\u65b9\u4f53.004",
            "primitives" : [
                {
                    "attributes" : {
                        "POSITION" : 16,
                        "NORMAL" : 17,
                        "TEXCOORD_0" : 18
                    },
                    "indices" : 15,
                    "material" : 2
                }
            ]
        },
        {
            "name" : "\u7acb\u65b9\u4f53.006",
            "primitives" : [
                {
                    "attributes" : {
                        "POSITION" : 19,
                        "NORMAL" : 20,
                        "TEXCOORD_0" : 21
                    },
                    "indices" : 22,
                    "material" : 2
                }
            ]
        },
        {
            "name" : "\u7acb\u65b9\u4f53.007",
            "primitives" : [
                {
                    "attributes" : {
                        "POSITION" : 23,
                        "NORMAL" : 24,
                        "TEXCOORD_0" : 25
                    },
                    "indices" : 26,
                    "material" : 2
                }
            ]
        },
        {
            "name" : "\u7acb\u65b9\u4f53.008",
            "primitives" : [
                {
                    "attributes" : {
                        "POSITION" : 27,
                        "NORMAL" : 28,
                        "TEXCOORD_0" : 29
                    },
                    "indices" : 30,
                    "material" : 2
                }
            ]
        },
        {
            "name" : "\u7acb\u65b9\u4f53.009",
            "primitives" : [
                {
                    "attributes" : {
                        "POSITION" : 31,
                        "NORMAL" : 32,
                        "TEXCOORD_0" : 33
                    },
                    "indices" : 15,
                    "material" : 2
                }
            ]
        },
        {
            "name" : "\u5e73\u9762",
            "primitives" : [
                {
                    "attributes" : {
                        "POSITION" : 34,
                        "NORMAL" : 35,
                        "TEXCOORD_0" : 36
                    },
                    "indices" : 37,
                    "material" : 3
                }
            ]
        }
    ],
    "accessors" : [
        {
            "bufferView" : 0,
            "componentType" : 5126,
            "count" : 159,
            "max" : [
                1,
                1,
                1
            ],
            "min" : [
                -1,
                -1,
                -1
            ],
            "type" : "VEC3"
        },
        {
            "bufferView" : 1,
            "componentType" : 5126,
            "count" : 159,
            "type" : "VEC3"
        },
        {
            "bufferView" : 2,
            "componentType" : 5126,
            "count" : 159,
            "type" : "VEC2"
        },
        {
            "bufferView" : 3,
            "componentType" : 5123,
            "count" : 252,
            "type" : "SCALAR"
        },
        {
            "bufferView" : 4,
            "componentType" : 5126,
            "count" : 250,
            "max" : [
                1,
                1,
                1
            ],
            "min" : [
                -1,
                -1,
                -1
            ],
            "type" : "VEC3"
        },
        {
            "bufferView" : 5,
            "componentType" : 5126,
            "count" : 250,
            "type" : "VEC3"
        },
        {
            "bufferView" : 6,
            "componentType" : 5126,
            "count" : 250,
            "type" : "VEC2"
        },
        {
            "bufferView" : 7,
            "componentType" : 5123,
            "count" : 534,
            "type" : "SCALAR"
        },
        {
            "bufferView" : 8,
            "componentType" : 5126,
            "count" : 20,
            "max" : [
                0.9645262360572815,
                1,
                0.9500414729118347
            ],
            "min" : [
                -0.9693148136138916,
                1,
                -0.9500414729118347
            ],
            "type" : "VEC3"
        },
        {
            "bufferView" : 9,
            "componentType" : 5126,
            "count" : 20,
            "type" : "VEC3"
        },
        {
            "bufferView" : 10,
            "componentType" : 5126,
            "count" : 20,
            "type" : "VEC2"
        },
        {
            "bufferView" : 11,
            "componentType" : 5123,
            "count" : 54,
            "type" : "SCALAR"
        },
        {
            "bufferView" : 12,
            "componentType" : 5126,
            "count" : 672,
            "max" : [
                1.62249755859375,
                0.21509775519371033,
                0.05481410026550293
            ],
            "min" : [
                -0.09307503700256348,
                0.20616087317466736,
                -0.05481410026550293
            ],
            "type" : "VEC3"
        },
        {
            "bufferView" : 13,
            "componentType" : 5126,
            "count" : 672,
            "type" : "VEC3"
        },
        {
            "bufferView" : 14,
            "componentType" : 5126,
            "count" : 672,
            "type" : "VEC2"
        },
        {
            "bufferView" : 15,
            "componentType" : 5123,
            "count" : 1176,
            "type" : "SCALAR"
        },
        {
            "bufferView" : 16,
            "componentType" : 5126,
            "count" : 672,
            "max" : [
                1.6584445238113403,
                0.21509775519371033,
                0.05481410026550293
            ],
            "min" : [
                -0.05481410026550293,
                0.20616087317466736,
                -0.05481410026550293
            ],
            "type" : "VEC3"
        },
        {
            "bufferView" : 17,
            "componentType" : 5126,
            "count" : 672,
            "type" : "VEC3"
        },
        {
            "bufferView" : 18,
            "componentType" : 5126,
            "count" : 672,
            "type" : "VEC2"
        },
        {
            "bufferView" : 19,
            "componentType" : 5126,
            "count" : 624,
            "max" : [
                1.637633204460144,
                0.21509775519371033,
                0.05481410026550293
            ],
            "min" : [
                -0.07373355329036713,
                0.20616087317466736,
                -0.05481410026550293
            ],
            "type" : "VEC3"
        },
        {
            "bufferView" : 20,
            "componentType" : 5126,
            "count" : 624,
            "type" : "VEC3"
        },
        {
            "bufferView" : 21,
            "componentType" : 5126,
            "count" : 624,
            "type" : "VEC2"
        },
        {
            "bufferView" : 22,
            "componentType" : 5123,
            "count" : 1092,
            "type" : "SCALAR"
        },
        {
            "bufferView" : 23,
            "componentType" : 5126,
            "count" : 576,
            "max" : [
                1.6357412338256836,
                0.21509775519371033,
                0.05481410026550293
            ],
            "min" : [
                -0.07373355329036713,
                0.20616087317466736,
                -0.05481410026550293
            ],
            "type" : "VEC3"
        },
        {
            "bufferView" : 24,
            "componentType" : 5126,
            "count" : 576,
            "type" : "VEC3"
        },
        {
            "bufferView" : 25,
            "componentType" : 5126,
            "count" : 576,
            "type" : "VEC2"
        },
        {
            "bufferView" : 26,
            "componentType" : 5123,
            "count" : 1008,
            "type" : "SCALAR"
        },
        {
            "bufferView" : 27,
            "componentType" : 5126,
            "count" : 528,
            "max" : [
                1.62249755859375,
                0.21509775519371033,
                0.05481410026550293
            ],
            "min" : [
                -0.0888691246509552,
                0.20616087317466736,
                -0.05481410026550293
            ],
            "type" : "VEC3"
        },
        {
            "bufferView" : 28,
            "componentType" : 5126,
            "count" : 528,
            "type" : "VEC3"
        },
        {
            "bufferView" : 29,
            "componentType" : 5126,
            "count" : 528,
            "type" : "VEC2"
        },
        {
            "bufferView" : 30,
            "componentType" : 5123,
            "count" : 924,
            "type" : "SCALAR"
        },
        {
            "bufferView" : 31,
            "componentType" : 5126,
            "count" : 672,
            "max" : [
                1.62249755859375,
                0.21509775519371033,
                0.05481410026550293
            ],
            "min" : [
                -0.09076103568077087,
                0.20616087317466736,
                -0.05481410026550293
            ],
            "type" : "VEC3"
        },
        {
            "bufferView" : 32,
            "componentType" : 5126,
            "count" : 672,
            "type" : "VEC3"
        },
        {
            "bufferView" : 33,
            "componentType" : 5126,
            "count" : 672,
            "type" : "VEC2"
        },
        {
            "bufferView" : 34,
            "componentType" : 5126,
            "count" : 28,
            "max" : [
                1.3703731298446655,
                0,
                0.3307293653488159
            ],
            "min" : [
                -1,
                0,
                -1
            ],
            "type" : "VEC3"
        },
        {
            "bufferView" : 35,
            "componentType" : 5126,
            "count" : 28,
            "type" : "VEC3"
        },
        {
            "bufferView" : 36,
            "componentType" : 5126,
            "count" : 28,
            "type" : "VEC2"
        },
        {
            "bufferView" : 37,
            "componentType" : 5123,
            "count" : 78,
            "type" : "SCALAR"
        }
    ],
    "bufferViews" : [
        {
            "buffer" : 0,
            "byteLength" : 1908,
            "byteOffset" : 0
        },
        {
            "buffer" : 0,
            "byteLength" : 1908,
            "byteOffset" : 1908
        },
        {
            "buffer" : 0,
            "byteLength" : 1272,
            "byteOffset" : 3816
        },
        {
            "buffer" : 0,
            "byteLength" : 504,
            "byteOffset" : 5088
        },
        {
            "buffer" : 0,
            "byteLength" : 3000,
            "byteOffset" : 5592
        },
        {
            "buffer" : 0,
            "byteLength" : 3000,
            "byteOffset" : 8592
        },
        {
            "buffer" : 0,
            "byteLength" : 2000,
            "byteOffset" : 11592
        },
        {
            "buffer" : 0,
            "byteLength" : 1068,
            "byteOffset" : 13592
        },
        {
            "buffer" : 0,
            "byteLength" : 240,
            "byteOffset" : 14660
        },
        {
            "buffer" : 0,
            "byteLength" : 240,
            "byteOffset" : 14900
        },
        {
            "buffer" : 0,
            "byteLength" : 160,
            "byteOffset" : 15140
        },
        {
            "buffer" : 0,
            "byteLength" : 108,
            "byteOffset" : 15300
        },
        {
            "buffer" : 0,
            "byteLength" : 8064,
            "byteOffset" : 15408
        },
        {
            "buffer" : 0,
            "byteLength" : 8064,
            "byteOffset" : 23472
        },
        {
            "buffer" : 0,
            "byteLength" : 5376,
            "byteOffset" : 31536
        },
        {
            "buffer" : 0,
            "byteLength" : 2352,
            "byteOffset" : 36912
        },
        {
            "buffer" : 0,
            "byteLength" : 8064,
            "byteOffset" : 39264
        },
        {
            "buffer" : 0,
            "byteLength" : 8064,
            "byteOffset" : 47328
        },
        {
            "buffer" : 0,
            "byteLength" : 5376,
            "byteOffset" : 55392
        },
        {
            "buffer" : 0,
            "byteLength" : 7488,
            "byteOffset" : 60768
        },
        {
            "buffer" : 0,
            "byteLength" : 7488,
            "byteOffset" : 68256
        },
        {
            "buffer" : 0,
            "byteLength" : 4992,
            "byteOffset" : 75744
        },
        {
            "buffer" : 0,
            "byteLength" : 2184,
            "byteOffset" : 80736
        },
        {
            "buffer" : 0,
            "byteLength" : 6912,
            "byteOffset" : 82920
        },
        {
            "buffer" : 0,
            "byteLength" : 6912,
            "byteOffset" : 89832
        },
        {
            "buffer" : 0,
            "byteLength" : 4608,
            "byteOffset" : 96744
        },
        {
            "buffer" : 0,
            "byteLength" : 2016,
            "byteOffset" : 101352
        },
        {
            "buffer" : 0,
            "byteLength" : 6336,
            "byteOffset" : 103368
        },
        {
            "buffer" : 0,
            "byteLength" : 6336,
            "byteOffset" : 109704
        },
        {
            "buffer" : 0,
            "byteLength" : 4224,
            "byteOffset" : 116040
        },
        {
            "buffer" : 0,
            "byteLength" : 1848,
            "byteOffset" : 120264
        },
        {
            "buffer" : 0,
            "byteLength" : 8064,
            "byteOffset" : 122112
        },
        {
            "buffer" : 0,
            "byteLength" : 8064,
            "byteOffset" : 130176
        },
        {
            "buffer" : 0,
            "byteLength" : 5376,
            "byteOffset" : 138240
        },
        {
            "buffer" : 0,
            "byteLength" : 336,
            "byteOffset" : 143616
        },
        {
            "buffer" : 0,
            "byteLength" : 336,
            "byteOffset" : 143952
        },
        {
            "buffer" : 0,
            "byteLength" : 224,
            "byteOffset" : 144288
        },
        {
            "buffer" : 0,
            "byteLength" : 156,
            "byteOffset" : 144512
        }
    ],
    "buffers" : [
        {
            "byteLength" : 144668,
            "uri" : "data:application/octet-stream;base64,"
        }
    ]
}
